<?xml version="1.0" encoding="UTF-8"?>
<!DOCTYPE svg PUBLIC "-//W3C//DTD SVG 1.1//EN" "http://www.w3.org/Graphics/SVG/1.1/DTD/svg11.dtd">
<svg version="1.1" xmlns="http://www.w3.org/2000/svg" xmlns:xlink="http://www.w3.org/1999/xlink" x="0" y="0" width="457" height="584" viewBox="0, 0, 457, 584">
  <g id="Layer_1">
    <g>
      <g>
        <path d="M257.474,6.68 C263.014,9.08 268.294,12.06 272.884,16.01 C280.614,20.93 286.354,28.22 292.714,34.69 C290.394,42.84 290.894,51.46 289.944,59.83 C290.044,66.81 289.274,73.73 288.374,80.64 C291.994,80.56 295.494,79.36 299.124,79.37 C307.884,80.32 316.984,83.11 323.094,89.81 C325.814,92.3 323.864,96.2 323.784,99.35 C321.554,109.7 322.554,120.33 322.324,130.83 C322.474,153.66 321.984,176.51 322.594,199.32 C326.424,194.48 327.404,188.2 330.114,182.77 C334.094,174.34 335.974,164.81 341.424,157.16 C349.364,155.18 358.644,155.44 365.564,160.33 C369.904,163.5 372.694,168.6 373.904,173.74 C372.784,177.82 369.954,181.2 368.244,185.06 C364.614,193.01 360.154,200.54 356.834,208.64 C352.354,219.37 346.784,229.61 342.634,240.49 C338.484,250.35 333.194,259.79 330.294,270.15 C333.314,265.54 335.134,260.29 337.824,255.51 C342.104,247.93 344.954,239.65 349.194,232.05 C352.994,224.39 356.514,216.59 359.854,208.72 C361.594,204.28 364.404,200.38 366.324,196.03 C369.054,190.12 371.274,183.95 374.644,178.35 C379.834,167.81 384.144,156.83 389.784,146.51 C392.664,140.91 394.714,134.93 397.694,129.37 C402.004,121.48 405.354,113.13 409.304,105.06 C410.964,100.9 412.824,96.82 415.404,93.15 C424.044,91.61 433.354,92.21 440.964,96.93 C445.004,99.6 447.264,104.06 449.764,108.07 C451.294,110.64 452.334,114.4 449.954,116.81 C445.104,122.35 442.534,129.33 438.624,135.48 C432.584,145.36 428.534,156.32 422.484,166.2 C419.424,171.44 417.504,177.22 414.644,182.55 C410.334,189.73 406.754,197.34 403.364,204.99 C398.754,214.56 392.924,223.61 389.784,233.84 C383.954,240.25 377.734,246.26 371.504,252.26 C367.804,256.31 363.624,259.84 359.334,263.24 C362.764,254.28 367.634,245.98 371.504,237.22 C377.384,226.21 382.014,214.6 387.784,203.54 C391.984,195.86 395.014,187.62 399.204,179.94 C403.944,171.09 407.594,161.71 412.074,152.73 C416.134,145.23 419.074,137.21 422.894,129.6 C425.114,124.82 428.414,120.28 428.954,114.92 C427.714,109.48 423.514,104.64 418.454,102.35 C415.614,100.6 413.564,103.9 412.234,105.96 C407.314,114.98 403.894,124.74 399.024,133.79 C394.394,142.37 391.094,151.58 386.494,160.17 C381.994,168.6 378.754,177.62 374.344,186.09 C369.904,194.75 366.294,203.8 361.784,212.42 C357.514,220.7 354.174,229.41 349.974,237.72 C345.934,245.52 342.784,253.74 338.744,261.55 C335.064,269.19 330.464,276.57 328.814,285 C321.374,287.81 314.234,291.43 306.464,293.29 C309.524,282.94 314.834,273.49 318.684,263.44 C322.524,253.21 327.824,243.6 331.444,233.27 C334.264,225.04 338.434,217.38 341.564,209.28 C344.634,200.6 348.384,192.19 352.064,183.76 C353.324,180.39 355.274,176.32 352.954,172.96 C350.614,169.4 347.444,165.69 343.134,164.72 C340.254,165.08 339.084,168.29 337.804,170.5 C332.694,181.95 328.624,193.83 323.544,205.29 C320.054,212.97 317.384,220.99 313.854,228.65 C310.264,236.33 307.764,244.45 304.514,252.27 C301.464,260.68 297.244,268.58 294.094,276.95 C291.484,284.06 287.354,290.64 286.074,298.21 C281.544,299.09 277.074,300.24 272.524,301.05 C269.414,292.11 267.194,282.88 263.814,274.03 C260.254,264.94 257.804,255.47 254.734,246.22 C252.154,238.6 250.854,230.38 246.214,223.64 C244.604,230.63 246.134,237.76 246.064,244.83 C246.084,252.5 246.024,260.18 245.984,267.85 C245.384,280.72 254.454,291.47 254.894,304.22 C254.304,304.33 253.124,304.56 252.534,304.67 C251.744,299.56 250.264,294.56 247.724,290.04 C246.254,295.11 246.724,300.42 247.034,305.62 C242.514,306.23 237.954,306.52 233.414,306.83 C233.874,297.83 232.904,288.83 233.164,279.83 C233.024,263.83 233.304,247.82 232.424,231.84 C231.674,212.52 232.734,193.15 231.204,173.86 C230.394,163.54 230.014,153.19 230.134,142.84 C229.814,136.04 230.564,128.99 228.514,122.42 C224.484,117.4 217.434,116.32 211.364,117 C211.034,121.56 211.024,126.15 211.564,130.7 C211.144,131.21 210.284,132.23 209.864,132.74 C208.654,125.4 208.714,117.95 208.434,110.54 C208.104,106.39 207.614,101.57 204.204,98.71 C199.114,95.18 191.664,94.4 186.754,98.69 C191.084,112.37 194.954,126.22 200.234,139.59 C203.634,148.06 204.944,157.26 209.184,165.4 C209.854,161.36 210.364,157.3 210.914,153.24 C211.654,155.49 212.434,157.74 213.064,160.04 C213.024,167.98 212.984,175.93 213.254,183.87 C213.514,191.53 214.594,199.12 214.844,206.78 C215.254,218.74 214.764,230.73 215.464,242.68 C216.314,254.39 216.044,266.13 216.154,277.85 C216.174,288.05 217.384,298.18 218.134,308.34 C216.854,308.43 215.594,308.51 214.334,308.59 C214.814,303.67 214.724,298.72 214.194,293.82 C213.184,285.19 213.394,276.49 213.334,267.82 C213.424,259.23 212.514,250.67 212.694,242.08 C212.984,236.89 213.114,231.7 212.694,226.53 C212.064,226.35 210.804,226.01 210.174,225.83 C210.234,228.7 210.334,231.58 210.514,234.46 C210.534,240.92 209.684,247.35 209.804,253.83 C209.884,261.32 209.824,268.83 208.744,276.26 C208.134,287.12 208.304,298.01 207.934,308.88 C205.654,308.98 203.374,309.09 201.104,309.19 C201.134,295.74 201.004,282.27 201.384,268.83 C202.614,250.85 201.824,232.82 202.354,214.82 C202.494,208.13 203.734,201.52 203.784,194.84 C203.864,190.67 201.064,187.33 198.854,184.08 C193.414,176.54 189.124,168.16 182.824,161.26 C180.454,168.56 181.484,176.3 181.514,183.83 C182.314,197.48 181.844,211.16 181.964,224.83 C181.974,234.83 181.874,244.84 181.334,254.83 C180.914,262.73 181.344,270.66 180.694,278.55 C179.794,288.83 180.414,299.15 180.104,309.44 C177.804,309.42 175.514,309.42 173.234,309.42 C169.984,295.79 165.294,282.56 160.494,269.42 C157.134,258.48 153.574,247.6 150.034,236.72 C145.124,224 141.834,210.73 137.034,197.98 C132.494,184.93 128.754,171.62 124.334,158.54 C120.524,148.85 117.994,138.75 115.074,128.78 C113.794,123.62 108.924,120.89 105.074,117.8 C97.604,111.84 90.044,105.94 81.884,100.93 C83.064,108.61 85.694,115.94 88.704,123.07 C93.004,135.51 96.404,148.28 101.494,160.44 C104.274,168.96 107.024,177.5 109.774,186.03 C111.814,193.4 115.194,200.3 117.314,207.65 C121.134,221.37 126.844,234.46 130.884,248.11 C135.074,261.72 140.424,274.92 144.414,288.6 C146.464,295.29 148.964,301.84 151.214,308.48 C147.574,308.45 143.984,307.92 140.414,307.35 C137.424,301.05 132.534,295.98 128.734,290.19 C122.454,281.82 116.284,273.36 109.784,265.16 C101.414,253.3 92.464,241.85 83.684,230.29 C79.024,223.05 73.234,216.66 68.254,209.66 C56.164,193.46 43.854,177.43 31.304,161.58 C29.894,159.98 28.284,158.09 25.954,158.11 C21.054,157.96 15.924,158.26 11.364,160.19 C8.794,161.5 10.314,164.63 11.594,166.34 C16.944,173.3 22.014,180.47 27.654,187.2 C32.644,194.48 38.674,200.98 43.664,208.26 C48.484,215.05 53.994,221.31 58.864,228.06 C65.214,235.75 70.794,244.02 77.294,251.58 C88.834,267.6 101.424,282.82 113.274,298.59 C116.114,302.92 120.774,305.52 125.894,306.01 C121.604,305.54 117.384,304.7 113.214,303.6 C106.904,295.8 101.274,287.48 94.894,279.74 C91.934,275.21 88.264,271.25 84.934,267.02 C74.984,252.45 63.194,239.24 53.184,224.72 C41.184,210.3 30.554,194.8 18.704,180.27 C14.064,173.17 7.754,167.26 3.734,159.77 C3.804,159.34 3.954,158.48 4.024,158.05 C8.414,150.66 15.874,145.33 24.174,143.24 C29.344,142.77 34.564,143.09 39.754,143.09 C43.034,149.62 46.454,156.13 51.144,161.78 C57.654,172.71 65.654,182.62 72.854,193.08 C78.584,199.49 82.654,207.13 88.204,213.69 C93.484,221.02 99.124,228.09 104.484,235.37 C107.214,239.01 109.424,243.04 112.554,246.38 C116.204,250.25 118.834,254.91 122.094,259.1 C127.724,265.79 132.064,273.49 137.934,279.99 C135.694,271.06 132.164,262.52 129.644,253.67 C125.034,239.54 119.604,225.69 115.514,211.39 C114.364,207.14 112.224,203.24 110.944,199.05 C108.404,190.38 105.314,181.91 102.754,173.26 C100.824,166.37 97.594,159.96 95.714,153.07 C93.514,146.53 91.414,139.97 89.404,133.37 C86.044,126.24 84.134,118.57 81.734,111.09 C79.794,105.61 78.014,100.08 76.544,94.46 C85.024,94.68 93.204,97.23 101.184,99.87 C107.904,103.5 115.314,105.77 121.624,110.16 C121.854,117.57 125.424,124.2 126.644,131.42 C128.774,139.84 131.194,148.19 133.454,156.59 C135.654,162.54 136.364,168.98 139.324,174.68 C140.324,168.44 139.704,162.1 139.764,155.82 C139.514,147.12 139.984,138.34 138.594,129.72 C138.444,119.75 137.574,109.81 137.824,99.83 C137.604,90.42 138.184,80.93 136.394,71.64 C141.534,70.11 146.574,67.62 152.064,67.99 C156.934,67.76 161.594,69.37 166.144,70.87 C170.964,72.99 174.614,76.94 178.724,80.12 C178.294,81.7 177.754,83.26 177.564,84.91 C174.364,130.19 176.604,175.58 176.804,220.92 C176.474,243.44 177.554,265.95 177.564,288.47 C177.824,288.48 178.344,288.49 178.604,288.5 C178.464,265.98 180.054,243.45 179.024,220.93 C178.554,215.89 179.344,210.87 179.344,205.83 C179.454,191.83 179.764,177.84 179.794,163.84 C179.794,160.47 179.974,157.12 180.334,153.79 C186.714,157.57 193.604,160.69 199.084,165.79 C201.904,168.43 204.814,170.99 208.054,173.12 C206.744,164.49 203.094,156.44 200.714,148.08 C194.924,134.68 192.104,120.19 186.254,106.81 C185.054,102.43 183.174,98.24 182.354,93.78 C183.924,87.81 189.994,84.65 195.004,81.86 C201.894,79.38 210.244,79.49 216.694,83.18 C219.104,84.22 219.054,87.05 219.684,89.24 C220.894,93.96 221.784,98.76 222.554,103.58 C231.084,102.42 240.464,105 245.664,112.24 C246.434,118.85 245.344,125.49 244.584,132.06 C244.244,145.62 244.304,159.2 244.434,172.76 C246.444,182.07 250.534,190.79 253.214,199.92 C255.444,194.46 254.254,188.47 254.674,182.74 C254.524,171.76 255.514,160.81 255.304,149.83 C255.244,128.47 255.504,107.12 255.854,85.77 C257.344,75.19 256.634,64.48 256.834,53.83 C256.654,38.1 256.994,22.39 257.474,6.68 M260.244,15.69 C259.514,30.05 260.094,44.45 259.874,58.83 C260.264,67.86 258.624,76.81 258.824,85.84 C258.394,95.49 259.164,105.16 258.214,114.8 C257.994,134.47 258.004,154.15 257.894,173.83 C258.094,182.51 256.964,191.15 257.204,199.83 C257.364,205.09 256.644,210.51 258.254,215.63 C260.034,221.21 261.204,227.01 263.544,232.41 C265.884,237.94 267.714,243.66 269.544,249.37 C271.284,254.81 272.304,260.56 275.294,265.52 C277.004,259.09 275.974,252.39 276.284,245.83 C276.134,231.15 277.254,216.5 277.164,201.83 C277.134,190.49 277.334,179.16 277.304,167.83 C277.284,160.48 278.564,153.19 278.354,145.83 C278.084,135.82 279.334,125.84 279.104,115.83 C279.214,107.02 278.934,98.2 279.614,89.42 C280.574,75.64 279.704,61.81 280.504,48.03 C281.154,41.42 275.984,36.4 272.474,31.42 C268.104,26.39 265.674,19.8 260.244,15.69 M140.474,78.07 C139.274,87.66 141.434,97.21 141.044,106.82 C140.694,127.85 142.394,148.82 143.034,169.83 C143.354,177.92 141.974,186.33 144.844,194.11 C146.604,199.34 148.024,204.69 150.014,209.85 C153.394,218.85 155.594,228.23 158.644,237.35 C159.934,240.98 160.164,245.1 162.684,248.19 C163.404,237.08 162.874,225.92 162.864,214.79 C161.724,203.16 162.354,191.46 161.424,179.81 C160.704,156.17 161.774,132.48 160.264,108.86 C159.994,102.83 160.204,96.8 160.104,90.77 C159.944,88.62 160.134,86.08 158.374,84.52 C153.664,80.01 147.094,76.99 140.474,78.07 M288.504,88.92 C287.984,93.2 287.864,97.52 287.914,101.84 C288.044,109.22 286.304,116.5 286.624,123.9 C286.604,131.56 287.944,139.16 287.884,146.83 C288.064,160.51 287.774,174.21 288.944,187.85 C290.354,200.46 289.754,213.17 290.054,225.83 C289.704,235.84 290.974,245.81 290.884,255.83 C290.984,261.42 290.424,267.11 291.924,272.58 C293.444,269.99 294.714,267.26 295.734,264.44 C297.714,258.91 300.794,253.86 302.664,248.29 C304.734,242.21 308.634,236.52 308.294,229.86 C308.004,212.18 308.244,194.5 307.984,176.82 C308.144,165.15 306.894,153.51 307.164,141.83 C306.784,126.68 308.084,111.21 304.594,96.35 C300.444,92.07 294.214,90.19 288.504,88.92 M283.344,212.18 C283.334,212.87 283.314,214.26 283.304,214.95 C283.234,234.57 282.894,254.21 281.844,273.81 C281.964,280.28 280.944,287 283.314,293.21 C285.054,291.85 285.634,289.72 286.214,287.7 C289.204,278.92 286.794,269.59 286.544,260.6 C286.314,245 286.314,229.4 286.314,213.8 C286.484,209.02 286.594,204.2 285.844,199.46 C286.884,194.91 286.234,190.19 285.554,185.65 C283.564,194.33 282.914,203.29 283.344,212.18 M327.294,274.04 C325.804,275 327.374,277.6 328.864,276.43 C330.334,275.45 328.774,272.84 327.294,274.04 z" fill="#FFCD07"/>
        <path d="M257.474,6.68 C263.014,9.08 268.294,12.06 272.884,16.01 C280.614,20.93 286.354,28.22 292.714,34.69 C290.394,42.84 290.894,51.46 289.944,59.83 C290.044,66.81 289.274,73.73 288.374,80.64 C291.994,80.56 295.494,79.36 299.124,79.37 C307.884,80.32 316.984,83.11 323.094,89.81 C325.814,92.3 323.864,96.2 323.784,99.35 C321.554,109.7 322.554,120.33 322.324,130.83 C322.474,153.66 321.984,176.51 322.594,199.32 C326.424,194.48 327.404,188.2 330.114,182.77 C334.094,174.34 335.974,164.81 341.424,157.16 C349.364,155.18 358.644,155.44 365.564,160.33 C369.904,163.5 372.694,168.6 373.904,173.74 C372.784,177.82 369.954,181.2 368.244,185.06 C364.614,193.01 360.154,200.54 356.834,208.64 C352.354,219.37 346.784,229.61 342.634,240.49 C338.484,250.35 333.194,259.79 330.294,270.15 C333.314,265.54 335.134,260.29 337.824,255.51 C342.104,247.93 344.954,239.65 349.194,232.05 C352.994,224.39 356.514,216.59 359.854,208.72 C361.594,204.28 364.404,200.38 366.324,196.03 C369.054,190.12 371.274,183.95 374.644,178.35 C379.834,167.81 384.144,156.83 389.784,146.51 C392.664,140.91 394.714,134.93 397.694,129.37 C402.004,121.48 405.354,113.13 409.304,105.06 C410.964,100.9 412.824,96.82 415.404,93.15 C424.044,91.61 433.354,92.21 440.964,96.93 C445.004,99.6 447.264,104.06 449.764,108.07 C451.294,110.64 452.334,114.4 449.954,116.81 C445.104,122.35 442.534,129.33 438.624,135.48 C432.584,145.36 428.534,156.32 422.484,166.2 C419.424,171.44 417.504,177.22 414.644,182.55 C410.334,189.73 406.754,197.34 403.364,204.99 C398.754,214.56 392.924,223.61 389.784,233.84 C383.954,240.25 377.734,246.26 371.504,252.26 C367.804,256.31 363.624,259.84 359.334,263.24 C362.764,254.28 367.634,245.98 371.504,237.22 C377.384,226.21 382.014,214.6 387.784,203.54 C391.984,195.86 395.014,187.62 399.204,179.94 C403.944,171.09 407.594,161.71 412.074,152.73 C416.134,145.23 419.074,137.21 422.894,129.6 C425.114,124.82 428.414,120.28 428.954,114.92 C427.714,109.48 423.514,104.64 418.454,102.35 C415.614,100.6 413.564,103.9 412.234,105.96 C407.314,114.98 403.894,124.74 399.024,133.79 C394.394,142.37 391.094,151.58 386.494,160.17 C381.994,168.6 378.754,177.62 374.344,186.09 C369.904,194.75 366.294,203.8 361.784,212.42 C357.514,220.7 354.174,229.41 349.974,237.72 C345.934,245.52 342.784,253.74 338.744,261.55 C335.064,269.19 330.464,276.57 328.814,285 C321.374,287.81 314.234,291.43 306.464,293.29 C309.524,282.94 314.834,273.49 318.684,263.44 C322.524,253.21 327.824,243.6 331.444,233.27 C334.264,225.04 338.434,217.38 341.564,209.28 C344.634,200.6 348.384,192.19 352.064,183.76 C353.324,180.39 355.274,176.32 352.954,172.96 C350.614,169.4 347.444,165.69 343.134,164.72 C340.254,165.08 339.084,168.29 337.804,170.5 C332.694,181.95 328.624,193.83 323.544,205.29 C320.054,212.97 317.384,220.99 313.854,228.65 C310.264,236.33 307.764,244.45 304.514,252.27 C301.464,260.68 297.244,268.58 294.094,276.95 C291.484,284.06 287.354,290.64 286.074,298.21 C281.544,299.09 277.074,300.24 272.524,301.05 C269.414,292.11 267.194,282.88 263.814,274.03 C260.254,264.94 257.804,255.47 254.734,246.22 C252.154,238.6 250.854,230.38 246.214,223.64 C244.604,230.63 246.134,237.76 246.064,244.83 C246.084,252.5 246.024,260.18 245.984,267.85 C245.384,280.72 254.454,291.47 254.894,304.22 C254.304,304.33 253.124,304.56 252.534,304.67 C251.744,299.56 250.264,294.56 247.724,290.04 C246.254,295.11 246.724,300.42 247.034,305.62 C242.514,306.23 237.954,306.52 233.414,306.83 C233.874,297.83 232.904,288.83 233.164,279.83 C233.024,263.83 233.304,247.82 232.424,231.84 C231.674,212.52 232.734,193.15 231.204,173.86 C230.394,163.54 230.014,153.19 230.134,142.84 C229.814,136.04 230.564,128.99 228.514,122.42 C224.484,117.4 217.434,116.32 211.364,117 C211.034,121.56 211.024,126.15 211.564,130.7 C211.144,131.21 210.284,132.23 209.864,132.74 C208.654,125.4 208.714,117.95 208.434,110.54 C208.104,106.39 207.614,101.57 204.204,98.71 C199.114,95.18 191.664,94.4 186.754,98.69 C191.084,112.37 194.954,126.22 200.234,139.59 C203.634,148.06 204.944,157.26 209.184,165.4 C209.854,161.36 210.364,157.3 210.914,153.24 C211.654,155.49 212.434,157.74 213.064,160.04 C213.024,167.98 212.984,175.93 213.254,183.87 C213.514,191.53 214.594,199.12 214.844,206.78 C215.254,218.74 214.764,230.73 215.464,242.68 C216.314,254.39 216.044,266.13 216.154,277.85 C216.174,288.05 217.384,298.18 218.134,308.34 C216.854,308.43 215.594,308.51 214.334,308.59 C214.814,303.67 214.724,298.72 214.194,293.82 C213.184,285.19 213.394,276.49 213.334,267.82 C213.424,259.23 212.514,250.67 212.694,242.08 C212.984,236.89 213.114,231.7 212.694,226.53 C212.064,226.35 210.804,226.01 210.174,225.83 C210.234,228.7 210.334,231.58 210.514,234.46 C210.534,240.92 209.684,247.35 209.804,253.83 C209.884,261.32 209.824,268.83 208.744,276.26 C208.134,287.12 208.304,298.01 207.934,308.88 C205.654,308.98 203.374,309.09 201.104,309.19 C201.134,295.74 201.004,282.27 201.384,268.83 C202.614,250.85 201.824,232.82 202.354,214.82 C202.494,208.13 203.734,201.52 203.784,194.84 C203.864,190.67 201.064,187.33 198.854,184.08 C193.414,176.54 189.124,168.16 182.824,161.26 C180.454,168.56 181.484,176.3 181.514,183.83 C182.314,197.48 181.844,211.16 181.964,224.83 C181.974,234.83 181.874,244.84 181.334,254.83 C180.914,262.73 181.344,270.66 180.694,278.55 C179.794,288.83 180.414,299.15 180.104,309.44 C177.804,309.42 175.514,309.42 173.234,309.42 C169.984,295.79 165.294,282.56 160.494,269.42 C157.134,258.48 153.574,247.6 150.034,236.72 C145.124,224 141.834,210.73 137.034,197.98 C132.494,184.93 128.754,171.62 124.334,158.54 C120.524,148.85 117.994,138.75 115.074,128.78 C113.794,123.62 108.924,120.89 105.074,117.8 C97.604,111.84 90.044,105.94 81.884,100.93 C83.064,108.61 85.694,115.94 88.704,123.07 C93.004,135.51 96.404,148.28 101.494,160.44 C104.274,168.96 107.024,177.5 109.774,186.03 C111.814,193.4 115.194,200.3 117.314,207.65 C121.134,221.37 126.844,234.46 130.884,248.11 C135.074,261.72 140.424,274.92 144.414,288.6 C146.464,295.29 148.964,301.84 151.214,308.48 C147.574,308.45 143.984,307.92 140.414,307.35 C137.424,301.05 132.534,295.98 128.734,290.19 C122.454,281.82 116.284,273.36 109.784,265.16 C101.414,253.3 92.464,241.85 83.684,230.29 C79.024,223.05 73.234,216.66 68.254,209.66 C56.164,193.46 43.854,177.43 31.304,161.58 C29.894,159.98 28.284,158.09 25.954,158.11 C21.054,157.96 15.924,158.26 11.364,160.19 C8.794,161.5 10.314,164.63 11.594,166.34 C16.944,173.3 22.014,180.47 27.654,187.2 C32.644,194.48 38.674,200.98 43.664,208.26 C48.484,215.05 53.994,221.31 58.864,228.06 C65.214,235.75 70.794,244.02 77.294,251.58 C88.834,267.6 101.424,282.82 113.274,298.59 C116.114,302.92 120.774,305.52 125.894,306.01 C121.604,305.54 117.384,304.7 113.214,303.6 C106.904,295.8 101.274,287.48 94.894,279.74 C91.934,275.21 88.264,271.25 84.934,267.02 C74.984,252.45 63.194,239.24 53.184,224.72 C41.184,210.3 30.554,194.8 18.704,180.27 C14.064,173.17 7.754,167.26 3.734,159.77 C3.804,159.34 3.954,158.48 4.024,158.05 C8.414,150.66 15.874,145.33 24.174,143.24 C29.344,142.77 34.564,143.09 39.754,143.09 C43.034,149.62 46.454,156.13 51.144,161.78 C57.654,172.71 65.654,182.62 72.854,193.08 C78.584,199.49 82.654,207.13 88.204,213.69 C93.484,221.02 99.124,228.09 104.484,235.37 C107.214,239.01 109.424,243.04 112.554,246.38 C116.204,250.25 118.834,254.91 122.094,259.1 C127.724,265.79 132.064,273.49 137.934,279.99 C135.694,271.06 132.164,262.52 129.644,253.67 C125.034,239.54 119.604,225.69 115.514,211.39 C114.364,207.14 112.224,203.24 110.944,199.05 C108.404,190.38 105.314,181.91 102.754,173.26 C100.824,166.37 97.594,159.96 95.714,153.07 C93.514,146.53 91.414,139.97 89.404,133.37 C86.044,126.24 84.134,118.57 81.734,111.09 C79.794,105.61 78.014,100.08 76.544,94.46 C85.024,94.68 93.204,97.23 101.184,99.87 C107.904,103.5 115.314,105.77 121.624,110.16 C121.854,117.57 125.424,124.2 126.644,131.42 C128.774,139.84 131.194,148.19 133.454,156.59 C135.654,162.54 136.364,168.98 139.324,174.68 C140.324,168.44 139.704,162.1 139.764,155.82 C139.514,147.12 139.984,138.34 138.594,129.72 C138.444,119.75 137.574,109.81 137.824,99.83 C137.604,90.42 138.184,80.93 136.394,71.64 C141.534,70.11 146.574,67.62 152.064,67.99 C156.934,67.76 161.594,69.37 166.144,70.87 C170.964,72.99 174.614,76.94 178.724,80.12 C178.294,81.7 177.754,83.26 177.564,84.91 C174.364,130.19 176.604,175.58 176.804,220.92 C176.474,243.44 177.554,265.95 177.564,288.47 C177.824,288.48 178.344,288.49 178.604,288.5 C178.464,265.98 180.054,243.45 179.024,220.93 C178.554,215.89 179.344,210.87 179.344,205.83 C179.454,191.83 179.764,177.84 179.794,163.84 C179.794,160.47 179.974,157.12 180.334,153.79 C186.714,157.57 193.604,160.69 199.084,165.79 C201.904,168.43 204.814,170.99 208.054,173.12 C206.744,164.49 203.094,156.44 200.714,148.08 C194.924,134.68 192.104,120.19 186.254,106.81 C185.054,102.43 183.174,98.24 182.354,93.78 C183.924,87.81 189.994,84.65 195.004,81.86 C201.894,79.38 210.244,79.49 216.694,83.18 C219.104,84.22 219.054,87.05 219.684,89.24 C220.894,93.96 221.784,98.76 222.554,103.58 C231.084,102.42 240.464,105 245.664,112.24 C246.434,118.85 245.344,125.49 244.584,132.06 C244.244,145.62 244.304,159.2 244.434,172.76 C246.444,182.07 250.534,190.79 253.214,199.92 C255.444,194.46 254.254,188.47 254.674,182.74 C254.524,171.76 255.514,160.81 255.304,149.83 C255.244,128.47 255.504,107.12 255.854,85.77 C257.344,75.19 256.634,64.48 256.834,53.83 C256.654,38.1 256.994,22.39 257.474,6.68 M260.244,15.69 C259.514,30.05 260.094,44.45 259.874,58.83 C260.264,67.86 258.624,76.81 258.824,85.84 C258.394,95.49 259.164,105.16 258.214,114.8 C257.994,134.47 258.004,154.15 257.894,173.83 C258.094,182.51 256.964,191.15 257.204,199.83 C257.364,205.09 256.644,210.51 258.254,215.63 C260.034,221.21 261.204,227.01 263.544,232.41 C265.884,237.94 267.714,243.66 269.544,249.37 C271.284,254.81 272.304,260.56 275.294,265.52 C277.004,259.09 275.974,252.39 276.284,245.83 C276.134,231.15 277.254,216.5 277.164,201.83 C277.134,190.49 277.334,179.16 277.304,167.83 C277.284,160.48 278.564,153.19 278.354,145.83 C278.084,135.82 279.334,125.84 279.104,115.83 C279.214,107.02 278.934,98.2 279.614,89.42 C280.574,75.64 279.704,61.81 280.504,48.03 C281.154,41.42 275.984,36.4 272.474,31.42 C268.104,26.39 265.674,19.8 260.244,15.69 M140.474,78.07 C139.274,87.66 141.434,97.21 141.044,106.82 C140.694,127.85 142.394,148.82 143.034,169.83 C143.354,177.92 141.974,186.33 144.844,194.11 C146.604,199.34 148.024,204.69 150.014,209.85 C153.394,218.85 155.594,228.23 158.644,237.35 C159.934,240.98 160.164,245.1 162.684,248.19 C163.404,237.08 162.874,225.92 162.864,214.79 C161.724,203.16 162.354,191.46 161.424,179.81 C160.704,156.17 161.774,132.48 160.264,108.86 C159.994,102.83 160.204,96.8 160.104,90.77 C159.944,88.62 160.134,86.08 158.374,84.52 C153.664,80.01 147.094,76.99 140.474,78.07 M288.504,88.92 C287.984,93.2 287.864,97.52 287.914,101.84 C288.044,109.22 286.304,116.5 286.624,123.9 C286.604,131.56 287.944,139.16 287.884,146.83 C288.064,160.51 287.774,174.21 288.944,187.85 C290.354,200.46 289.754,213.17 290.054,225.83 C289.704,235.84 290.974,245.81 290.884,255.83 C290.984,261.42 290.424,267.11 291.924,272.58 C293.444,269.99 294.714,267.26 295.734,264.44 C297.714,258.91 300.794,253.86 302.664,248.29 C304.734,242.21 308.634,236.52 308.294,229.86 C308.004,212.18 308.244,194.5 307.984,176.82 C308.144,165.15 306.894,153.51 307.164,141.83 C306.784,126.68 308.084,111.21 304.594,96.35 C300.444,92.07 294.214,90.19 288.504,88.92 M283.344,212.18 C283.334,212.87 283.314,214.26 283.304,214.95 C283.234,234.57 282.894,254.21 281.844,273.81 C281.964,280.28 280.944,287 283.314,293.21 C285.054,291.85 285.634,289.72 286.214,287.7 C289.204,278.92 286.794,269.59 286.544,260.6 C286.314,245 286.314,229.4 286.314,213.8 C286.484,209.02 286.594,204.2 285.844,199.46 C286.884,194.91 286.234,190.19 285.554,185.65 C283.564,194.33 282.914,203.29 283.344,212.18 M327.294,274.04 C325.804,275 327.374,277.6 328.864,276.43 C330.334,275.45 328.774,272.84 327.294,274.04 z" fill-opacity="0" stroke="#FFCD07" stroke-width="0.5"/>
      </g>
      <g>
        <path d="M260.244,15.69 C265.674,19.8 268.104,26.39 272.474,31.42 C275.984,36.4 281.154,41.42 280.504,48.03 C279.704,61.81 280.574,75.64 279.614,89.42 C278.934,98.2 279.214,107.02 279.104,115.83 C279.334,125.84 278.084,135.82 278.354,145.83 C278.564,153.19 277.284,160.48 277.304,167.83 C277.334,179.16 277.134,190.49 277.164,201.83 C277.254,216.5 276.134,231.15 276.284,245.83 C275.974,252.39 277.004,259.09 275.294,265.52 C272.304,260.56 271.284,254.81 269.544,249.37 C267.714,243.66 265.884,237.94 263.544,232.41 C261.204,227.01 260.034,221.21 258.254,215.63 C256.644,210.51 257.364,205.09 257.204,199.83 C256.964,191.15 258.094,182.51 257.894,173.83 C258.004,154.15 257.994,134.47 258.214,114.8 C259.164,105.16 258.394,95.49 258.824,85.84 C258.624,76.81 260.264,67.86 259.874,58.83 C260.094,44.45 259.514,30.05 260.244,15.69 z" fill="#FFAF02"/>
        <path d="M260.244,15.69 C265.674,19.8 268.104,26.39 272.474,31.42 C275.984,36.4 281.154,41.42 280.504,48.03 C279.704,61.81 280.574,75.64 279.614,89.42 C278.934,98.2 279.214,107.02 279.104,115.83 C279.334,125.84 278.084,135.82 278.354,145.83 C278.564,153.19 277.284,160.48 277.304,167.83 C277.334,179.16 277.134,190.49 277.164,201.83 C277.254,216.5 276.134,231.15 276.284,245.83 C275.974,252.39 277.004,259.09 275.294,265.52 C272.304,260.56 271.284,254.81 269.544,249.37 C267.714,243.66 265.884,237.94 263.544,232.41 C261.204,227.01 260.034,221.21 258.254,215.63 C256.644,210.51 257.364,205.09 257.204,199.83 C256.964,191.15 258.094,182.51 257.894,173.83 C258.004,154.15 257.994,134.47 258.214,114.8 C259.164,105.16 258.394,95.49 258.824,85.84 C258.624,76.81 260.264,67.86 259.874,58.83 C260.094,44.45 259.514,30.05 260.244,15.69 z" fill-opacity="0" stroke="#FFAF02" stroke-width="0.5"/>
      </g>
      <g>
        <path d="M140.474,78.07 C147.094,76.99 153.664,80.01 158.374,84.52 C160.134,86.08 159.944,88.62 160.104,90.77 C160.204,96.8 159.994,102.83 160.264,108.86 C161.774,132.48 160.704,156.17 161.424,179.81 C162.354,191.46 161.724,203.16 162.864,214.79 C162.874,225.92 163.404,237.08 162.684,248.19 C160.164,245.1 159.934,240.98 158.644,237.35 C155.594,228.23 153.394,218.85 150.014,209.85 C148.024,204.69 146.604,199.34 144.844,194.11 C141.974,186.33 143.354,177.92 143.034,169.83 C142.394,148.82 140.694,127.85 141.044,106.82 C141.434,97.21 139.274,87.66 140.474,78.07 z" fill="#FFAD02"/>
        <path d="M140.474,78.07 C147.094,76.99 153.664,80.01 158.374,84.52 C160.134,86.08 159.944,88.62 160.104,90.77 C160.204,96.8 159.994,102.83 160.264,108.86 C161.774,132.48 160.704,156.17 161.424,179.81 C162.354,191.46 161.724,203.16 162.864,214.79 C162.874,225.92 163.404,237.08 162.684,248.19 C160.164,245.1 159.934,240.98 158.644,237.35 C155.594,228.23 153.394,218.85 150.014,209.85 C148.024,204.69 146.604,199.34 144.844,194.11 C141.974,186.33 143.354,177.92 143.034,169.83 C142.394,148.82 140.694,127.85 141.044,106.82 C141.434,97.21 139.274,87.66 140.474,78.07 z" fill-opacity="0" stroke="#FFAD02" stroke-width="0.5"/>
      </g>
      <g>
        <path d="M288.504,88.92 C294.214,90.19 300.444,92.07 304.594,96.35 C308.084,111.21 306.784,126.68 307.164,141.83 C306.894,153.51 308.144,165.15 307.984,176.82 C308.244,194.5 308.004,212.18 308.294,229.86 C308.634,236.52 304.734,242.21 302.664,248.29 C300.794,253.86 297.714,258.91 295.734,264.44 C294.714,267.26 293.444,269.99 291.924,272.58 C290.424,267.11 290.984,261.42 290.884,255.83 C290.974,245.81 289.704,235.84 290.054,225.83 C289.754,213.17 290.354,200.46 288.944,187.85 C287.774,174.21 288.064,160.51 287.884,146.83 C287.944,139.16 286.604,131.56 286.624,123.9 C286.304,116.5 288.044,109.22 287.914,101.84 C287.864,97.52 287.984,93.2 288.504,88.92 z" fill="#FFAD02"/>
        <path d="M288.504,88.92 C294.214,90.19 300.444,92.07 304.594,96.35 C308.084,111.21 306.784,126.68 307.164,141.83 C306.894,153.51 308.144,165.15 307.984,176.82 C308.244,194.5 308.004,212.18 308.294,229.86 C308.634,236.52 304.734,242.21 302.664,248.29 C300.794,253.86 297.714,258.91 295.734,264.44 C294.714,267.26 293.444,269.99 291.924,272.58 C290.424,267.11 290.984,261.42 290.884,255.83 C290.974,245.81 289.704,235.84 290.054,225.83 C289.754,213.17 290.354,200.46 288.944,187.85 C287.774,174.21 288.064,160.51 287.884,146.83 C287.944,139.16 286.604,131.56 286.624,123.9 C286.304,116.5 288.044,109.22 287.914,101.84 C287.864,97.52 287.984,93.2 288.504,88.92 z" fill-opacity="0" stroke="#FFAD02" stroke-width="0.5"/>
      </g>
      <g>
        <path d="M186.754,98.69 C191.664,94.4 199.114,95.18 204.204,98.71 C207.614,101.57 208.104,106.39 208.434,110.54 C208.714,117.95 208.654,125.4 209.864,132.74 C210.284,132.23 211.144,131.21 211.564,130.7 C212.514,140.45 213.644,150.23 213.064,160.04 C212.434,157.74 211.654,155.49 210.914,153.24 C210.364,157.3 209.854,161.36 209.184,165.4 C204.944,157.26 203.634,148.06 200.234,139.59 C194.954,126.22 191.084,112.37 186.754,98.69 z" fill="#FFB503"/>
        <path d="M186.754,98.69 C191.664,94.4 199.114,95.18 204.204,98.71 C207.614,101.57 208.104,106.39 208.434,110.54 C208.714,117.95 208.654,125.4 209.864,132.74 C210.284,132.23 211.144,131.21 211.564,130.7 C212.514,140.45 213.644,150.23 213.064,160.04 C212.434,157.74 211.654,155.49 210.914,153.24 C210.364,157.3 209.854,161.36 209.184,165.4 C204.944,157.26 203.634,148.06 200.234,139.59 C194.954,126.22 191.084,112.37 186.754,98.69 z" fill-opacity="0" stroke="#FFB503" stroke-width="0.5"/>
      </g>
      <g>
        <path d="M81.884,100.93 C90.044,105.94 97.604,111.84 105.074,117.8 C108.924,120.89 113.794,123.62 115.074,128.78 C117.994,138.75 120.524,148.85 124.334,158.54 C128.754,171.62 132.494,184.93 137.034,197.98 C141.834,210.73 145.124,224 150.034,236.72 C153.574,247.6 157.134,258.48 160.494,269.42 C165.294,282.56 169.984,295.79 173.234,309.42 C165.874,309.58 158.554,308.74 151.214,308.48 C148.964,301.84 146.464,295.29 144.414,288.6 C140.424,274.92 135.074,261.72 130.884,248.11 C126.844,234.46 121.134,221.37 117.314,207.65 C115.194,200.3 111.814,193.4 109.774,186.03 C107.024,177.5 104.274,168.96 101.494,160.44 C96.404,148.28 93.004,135.51 88.704,123.07 C85.694,115.94 83.064,108.61 81.884,100.93 z" fill="#FFA001"/>
        <path d="M81.884,100.93 C90.044,105.94 97.604,111.84 105.074,117.8 C108.924,120.89 113.794,123.62 115.074,128.78 C117.994,138.75 120.524,148.85 124.334,158.54 C128.754,171.62 132.494,184.93 137.034,197.98 C141.834,210.73 145.124,224 150.034,236.72 C153.574,247.6 157.134,258.48 160.494,269.42 C165.294,282.56 169.984,295.79 173.234,309.42 C165.874,309.58 158.554,308.74 151.214,308.48 C148.964,301.84 146.464,295.29 144.414,288.6 C140.424,274.92 135.074,261.72 130.884,248.11 C126.844,234.46 121.134,221.37 117.314,207.65 C115.194,200.3 111.814,193.4 109.774,186.03 C107.024,177.5 104.274,168.96 101.494,160.44 C96.404,148.28 93.004,135.51 88.704,123.07 C85.694,115.94 83.064,108.61 81.884,100.93 z" fill-opacity="0" stroke="#FFA001" stroke-width="0.5"/>
      </g>
      <g>
        <path d="M412.234,105.96 C413.564,103.9 415.614,100.6 418.454,102.35 C423.514,104.64 427.714,109.48 428.954,114.92 C428.414,120.28 425.114,124.82 422.894,129.6 C419.074,137.21 416.134,145.23 412.074,152.73 C407.594,161.71 403.944,171.09 399.204,179.94 C395.014,187.62 391.984,195.86 387.784,203.54 C382.014,214.6 377.384,226.21 371.504,237.22 C367.634,245.98 362.764,254.28 359.334,263.24 C355.214,267.98 350.564,272.23 345.704,276.19 C340.594,280.04 334.724,282.67 328.814,285 C330.464,276.57 335.064,269.19 338.744,261.55 C342.784,253.74 345.934,245.52 349.974,237.72 C354.174,229.41 357.514,220.7 361.784,212.42 C366.294,203.8 369.904,194.75 374.344,186.09 C378.754,177.62 381.994,168.6 386.494,160.17 C391.094,151.58 394.394,142.37 399.024,133.79 C403.894,124.74 407.314,114.98 412.234,105.96 z" fill="#FFA001"/>
        <path d="M412.234,105.96 C413.564,103.9 415.614,100.6 418.454,102.35 C423.514,104.64 427.714,109.48 428.954,114.92 C428.414,120.28 425.114,124.82 422.894,129.6 C419.074,137.21 416.134,145.23 412.074,152.73 C407.594,161.71 403.944,171.09 399.204,179.94 C395.014,187.62 391.984,195.86 387.784,203.54 C382.014,214.6 377.384,226.21 371.504,237.22 C367.634,245.98 362.764,254.28 359.334,263.24 C355.214,267.98 350.564,272.23 345.704,276.19 C340.594,280.04 334.724,282.67 328.814,285 C330.464,276.57 335.064,269.19 338.744,261.55 C342.784,253.74 345.934,245.52 349.974,237.72 C354.174,229.41 357.514,220.7 361.784,212.42 C366.294,203.8 369.904,194.75 374.344,186.09 C378.754,177.62 381.994,168.6 386.494,160.17 C391.094,151.58 394.394,142.37 399.024,133.79 C403.894,124.74 407.314,114.98 412.234,105.96 z" fill-opacity="0" stroke="#FFA001" stroke-width="0.5"/>
      </g>
      <g>
        <path d="M211.364,117 C217.434,116.32 224.484,117.4 228.514,122.42 C230.564,128.99 229.814,136.04 230.134,142.84 C230.014,153.19 230.394,163.54 231.204,173.86 C232.734,193.15 231.674,212.52 232.424,231.84 C233.304,247.82 233.024,263.83 233.164,279.83 C232.904,288.83 233.874,297.83 233.414,306.83 C228.284,307.03 223.214,307.74 218.134,308.34 C217.384,298.18 216.174,288.05 216.154,277.85 C216.044,266.13 216.314,254.39 215.464,242.68 C214.764,230.73 215.254,218.74 214.844,206.78 C214.594,199.12 213.514,191.53 213.254,183.87 C212.984,175.93 213.024,167.98 213.064,160.04 C213.644,150.23 212.514,140.45 211.564,130.7 C211.024,126.15 211.034,121.56 211.364,117 z" fill="#FFA001"/>
        <path d="M211.364,117 C217.434,116.32 224.484,117.4 228.514,122.42 C230.564,128.99 229.814,136.04 230.134,142.84 C230.014,153.19 230.394,163.54 231.204,173.86 C232.734,193.15 231.674,212.52 232.424,231.84 C233.304,247.82 233.024,263.83 233.164,279.83 C232.904,288.83 233.874,297.83 233.414,306.83 C228.284,307.03 223.214,307.74 218.134,308.34 C217.384,298.18 216.174,288.05 216.154,277.85 C216.044,266.13 216.314,254.39 215.464,242.68 C214.764,230.73 215.254,218.74 214.844,206.78 C214.594,199.12 213.514,191.53 213.254,183.87 C212.984,175.93 213.024,167.98 213.064,160.04 C213.644,150.23 212.514,140.45 211.564,130.7 C211.024,126.15 211.034,121.56 211.364,117 z" fill-opacity="0" stroke="#FFA001" stroke-width="0.5"/>
      </g>
      <g>
        <path d="M11.364,160.19 C15.924,158.26 21.054,157.96 25.954,158.11 C28.284,158.09 29.894,159.98 31.304,161.58 C43.854,177.43 56.164,193.46 68.254,209.66 C73.234,216.66 79.024,223.05 83.684,230.29 C92.464,241.85 101.414,253.3 109.784,265.16 C116.284,273.36 122.454,281.82 128.734,290.19 C132.534,295.98 137.424,301.05 140.414,307.35 C135.574,306.83 130.714,306.64 125.894,306.01 C120.774,305.52 116.114,302.92 113.274,298.59 C101.424,282.82 88.834,267.6 77.294,251.58 C70.794,244.02 65.214,235.75 58.864,228.06 C53.994,221.31 48.484,215.05 43.664,208.26 C38.674,200.98 32.644,194.48 27.654,187.2 C22.014,180.47 16.944,173.3 11.594,166.34 C10.314,164.63 8.794,161.5 11.364,160.19 z" fill="#FFA001"/>
        <path d="M11.364,160.19 C15.924,158.26 21.054,157.96 25.954,158.11 C28.284,158.09 29.894,159.98 31.304,161.58 C43.854,177.43 56.164,193.46 68.254,209.66 C73.234,216.66 79.024,223.05 83.684,230.29 C92.464,241.85 101.414,253.3 109.784,265.16 C116.284,273.36 122.454,281.82 128.734,290.19 C132.534,295.98 137.424,301.05 140.414,307.35 C135.574,306.83 130.714,306.64 125.894,306.01 C120.774,305.52 116.114,302.92 113.274,298.59 C101.424,282.82 88.834,267.6 77.294,251.58 C70.794,244.02 65.214,235.75 58.864,228.06 C53.994,221.31 48.484,215.05 43.664,208.26 C38.674,200.98 32.644,194.48 27.654,187.2 C22.014,180.47 16.944,173.3 11.594,166.34 C10.314,164.63 8.794,161.5 11.364,160.19 z" fill-opacity="0" stroke="#FFA001" stroke-width="0.5"/>
      </g>
      <g>
        <path d="M181.514,183.83 C181.484,176.3 180.454,168.56 182.824,161.26 C189.124,168.16 193.414,176.54 198.854,184.08 C201.064,187.33 203.864,190.67 203.784,194.84 C203.734,201.52 202.494,208.13 202.354,214.82 C201.824,232.82 202.614,250.85 201.384,268.83 C201.004,282.27 201.134,295.74 201.104,309.19 C194.104,309.43 187.094,309.51 180.104,309.44 C180.414,299.15 179.794,288.83 180.694,278.55 C181.344,270.66 180.914,262.73 181.334,254.83 C181.874,244.84 181.974,234.83 181.964,224.83 C181.844,211.16 182.314,197.48 181.514,183.83 z" fill="#FFAF02"/>
        <path d="M181.514,183.83 C181.484,176.3 180.454,168.56 182.824,161.26 C189.124,168.16 193.414,176.54 198.854,184.08 C201.064,187.33 203.864,190.67 203.784,194.84 C203.734,201.52 202.494,208.13 202.354,214.82 C201.824,232.82 202.614,250.85 201.384,268.83 C201.004,282.27 201.134,295.74 201.104,309.19 C194.104,309.43 187.094,309.51 180.104,309.44 C180.414,299.15 179.794,288.83 180.694,278.55 C181.344,270.66 180.914,262.73 181.334,254.83 C181.874,244.84 181.974,234.83 181.964,224.83 C181.844,211.16 182.314,197.48 181.514,183.83 z" fill-opacity="0" stroke="#FFAF02" stroke-width="0.5"/>
      </g>
      <g>
        <path d="M337.804,170.5 C339.084,168.29 340.254,165.08 343.134,164.72 C347.444,165.69 350.614,169.4 352.954,172.96 C355.274,176.32 353.324,180.39 352.064,183.76 C348.384,192.19 344.634,200.6 341.564,209.28 C338.434,217.38 334.264,225.04 331.444,233.27 C327.824,243.6 322.524,253.21 318.684,263.44 C314.834,273.49 309.524,282.94 306.464,293.29 C299.754,295.27 292.914,296.79 286.074,298.21 C287.354,290.64 291.484,284.06 294.094,276.95 C297.244,268.58 301.464,260.68 304.514,252.27 C307.764,244.45 310.264,236.33 313.854,228.65 C317.384,220.99 320.054,212.97 323.544,205.29 C328.624,193.83 332.694,181.95 337.804,170.5 z" fill="#FFA802"/>
        <path d="M337.804,170.5 C339.084,168.29 340.254,165.08 343.134,164.72 C347.444,165.69 350.614,169.4 352.954,172.96 C355.274,176.32 353.324,180.39 352.064,183.76 C348.384,192.19 344.634,200.6 341.564,209.28 C338.434,217.38 334.264,225.04 331.444,233.27 C327.824,243.6 322.524,253.21 318.684,263.44 C314.834,273.49 309.524,282.94 306.464,293.29 C299.754,295.27 292.914,296.79 286.074,298.21 C287.354,290.64 291.484,284.06 294.094,276.95 C297.244,268.58 301.464,260.68 304.514,252.27 C307.764,244.45 310.264,236.33 313.854,228.65 C317.384,220.99 320.054,212.97 323.544,205.29 C328.624,193.83 332.694,181.95 337.804,170.5 z" fill-opacity="0" stroke="#FFA802" stroke-width="0.5"/>
      </g>
      <g>
        <path d="M283.344,212.18 C282.914,203.29 283.564,194.33 285.554,185.65 C286.234,190.19 286.884,194.91 285.844,199.46 C284.634,203.61 283.434,207.82 283.344,212.18 z" fill="#FFDF5E"/>
        <path d="M283.344,212.18 C282.914,203.29 283.564,194.33 285.554,185.65 C286.234,190.19 286.884,194.91 285.844,199.46 C284.634,203.61 283.434,207.82 283.344,212.18 z" fill-opacity="0" stroke="#FFDF5E" stroke-width="0.5"/>
      </g>
      <g>
        <path d="M283.344,212.18 C283.434,207.82 284.634,203.61 285.844,199.46 C286.594,204.2 286.484,209.02 286.314,213.8 C285.304,214.17 284.304,214.56 283.304,214.95 C283.314,214.26 283.334,212.87 283.344,212.18 z" fill="#F9E697"/>
        <path d="M283.344,212.18 C283.434,207.82 284.634,203.61 285.844,199.46 C286.594,204.2 286.484,209.02 286.314,213.8 C285.304,214.17 284.304,214.56 283.304,214.95 C283.314,214.26 283.334,212.87 283.344,212.18 z" fill-opacity="0" stroke="#F9E697" stroke-width="0.5"/>
      </g>
      <g>
        <path d="M389.784,233.84 C392.924,223.61 398.754,214.56 403.364,204.99 C408.314,206.89 413.624,205.1 418.754,205.93 C418.864,207.06 418.994,208.19 419.134,209.34 C413.844,211.52 409.614,215.4 405.814,219.56 C400.544,224.4 395.874,229.98 389.784,233.84 z" fill="#A1A3A6"/>
        <path d="M389.784,233.84 C392.924,223.61 398.754,214.56 403.364,204.99 C408.314,206.89 413.624,205.1 418.754,205.93 C418.864,207.06 418.994,208.19 419.134,209.34 C413.844,211.52 409.614,215.4 405.814,219.56 C400.544,224.4 395.874,229.98 389.784,233.84 z" fill-opacity="0" stroke="#A1A3A6" stroke-width="0.5"/>
      </g>
      <g>
        <path d="M356.834,208.64 C357.584,208.66 359.094,208.7 359.854,208.72 C356.514,216.59 352.994,224.39 349.194,232.05 C344.954,239.65 342.104,247.93 337.824,255.51 C335.134,260.29 333.314,265.54 330.294,270.15 C333.194,259.79 338.484,250.35 342.634,240.49 C346.784,229.61 352.354,219.37 356.834,208.64 z" fill="#A0A2A6"/>
        <path d="M356.834,208.64 C357.584,208.66 359.094,208.7 359.854,208.72 C356.514,216.59 352.994,224.39 349.194,232.05 C344.954,239.65 342.104,247.93 337.824,255.51 C335.134,260.29 333.314,265.54 330.294,270.15 C333.194,259.79 338.484,250.35 342.634,240.49 C346.784,229.61 352.354,219.37 356.834,208.64 z" fill-opacity="0" stroke="#A0A2A6" stroke-width="0.5"/>
      </g>
      <g>
        <path d="M405.814,219.56 C409.614,215.4 413.844,211.52 419.134,209.34 C419.804,217.18 418.584,224.99 418.654,232.83 C418.634,243.17 417.824,253.49 417.874,263.83 C417.764,270.65 417.874,277.51 416.794,284.28 C415.884,297.92 416.954,311.64 415.724,325.28 C415.384,345.83 414.494,366.37 414.674,386.92 C414.314,383.85 414.024,380.77 413.604,377.72 C413.354,392.76 413.584,407.82 412.704,422.84 C412.664,428.23 412.594,433.64 411.644,438.97 C410.944,449.91 411.834,460.9 410.864,471.84 C410.494,488.51 409.854,505.17 409.694,521.85 C409.464,526.59 410.024,531.56 408.204,536.07 C400.194,543.42 390.924,549.3 382.824,556.58 C378.184,560.67 372.674,563.65 368.184,567.93 C363.414,572.35 357.514,575.39 353.184,580.3 C351.354,574.44 352.024,568.24 351.694,562.21 C351.204,535.93 350.884,509.65 350.674,483.37 C350.784,474.83 349.344,466.37 349.454,457.84 C349.314,433.16 348.754,408.48 348.594,383.8 C347.004,366.52 347.364,349.16 347.174,331.83 C347.244,321.83 346.474,311.84 346.494,301.84 C346.364,293.29 346.894,284.69 345.704,276.19 C350.564,272.23 355.214,267.98 359.334,263.24 C363.624,259.84 367.804,256.31 371.504,252.26 C377.734,246.26 383.954,240.25 389.784,233.84 C395.874,229.98 400.544,224.4 405.814,219.56 z" fill="#A19788"/>
        <path d="M405.814,219.56 C409.614,215.4 413.844,211.52 419.134,209.34 C419.804,217.18 418.584,224.99 418.654,232.83 C418.634,243.17 417.824,253.49 417.874,263.83 C417.764,270.65 417.874,277.51 416.794,284.28 C415.884,297.92 416.954,311.64 415.724,325.28 C415.384,345.83 414.494,366.37 414.674,386.92 C414.314,383.85 414.024,380.77 413.604,377.72 C413.354,392.76 413.584,407.82 412.704,422.84 C412.664,428.23 412.594,433.64 411.644,438.97 C410.944,449.91 411.834,460.9 410.864,471.84 C410.494,488.51 409.854,505.17 409.694,521.85 C409.464,526.59 410.024,531.56 408.204,536.07 C400.194,543.42 390.924,549.3 382.824,556.58 C378.184,560.67 372.674,563.65 368.184,567.93 C363.414,572.35 357.514,575.39 353.184,580.3 C351.354,574.44 352.024,568.24 351.694,562.21 C351.204,535.93 350.884,509.65 350.674,483.37 C350.784,474.83 349.344,466.37 349.454,457.84 C349.314,433.16 348.754,408.48 348.594,383.8 C347.004,366.52 347.364,349.16 347.174,331.83 C347.244,321.83 346.474,311.84 346.494,301.84 C346.364,293.29 346.894,284.69 345.704,276.19 C350.564,272.23 355.214,267.98 359.334,263.24 C363.624,259.84 367.804,256.31 371.504,252.26 C377.734,246.26 383.954,240.25 389.784,233.84 C395.874,229.98 400.544,224.4 405.814,219.56 z" fill-opacity="0" stroke="#A19788" stroke-width="0.5"/>
      </g>
      <g>
        <path d="M283.304,214.95 C284.304,214.56 285.304,214.17 286.314,213.8 C286.314,229.4 286.314,245 286.544,260.6 C286.794,269.59 289.204,278.92 286.214,287.7 C285.634,289.72 285.054,291.85 283.314,293.21 C280.944,287 281.964,280.28 281.844,273.81 C282.894,254.21 283.234,234.57 283.304,214.95 z" fill="#A0A3A6"/>
        <path d="M283.304,214.95 C284.304,214.56 285.304,214.17 286.314,213.8 C286.314,229.4 286.314,245 286.544,260.6 C286.794,269.59 289.204,278.92 286.214,287.7 C285.634,289.72 285.054,291.85 283.314,293.21 C280.944,287 281.964,280.28 281.844,273.81 C282.894,254.21 283.234,234.57 283.304,214.95 z" fill-opacity="0" stroke="#A0A3A6" stroke-width="0.5"/>
      </g>
      <g>
        <path d="M176.804,220.92 C177.364,220.92 178.474,220.93 179.024,220.93 C180.054,243.45 178.464,265.98 178.604,288.5 C178.344,288.49 177.824,288.48 177.564,288.47 C177.554,265.95 176.474,243.44 176.804,220.92 z" fill="#A19788"/>
        <path d="M176.804,220.92 C177.364,220.92 178.474,220.93 179.024,220.93 C180.054,243.45 178.464,265.98 178.604,288.5 C178.344,288.49 177.824,288.48 177.564,288.47 C177.554,265.95 176.474,243.44 176.804,220.92 z" fill-opacity="0" stroke="#A19788" stroke-width="0.5"/>
      </g>
      <g>
        <path d="M246.214,223.64 C250.854,230.38 252.154,238.6 254.734,246.22 C257.804,255.47 260.254,264.94 263.814,274.03 C267.194,282.88 269.414,292.11 272.524,301.05 C266.644,302.08 260.794,303.25 254.894,304.22 C254.454,291.47 245.384,280.72 245.984,267.85 C246.024,260.18 246.084,252.5 246.064,244.83 C246.134,237.76 244.604,230.63 246.214,223.64 z" fill="#FFB503"/>
        <path d="M246.214,223.64 C250.854,230.38 252.154,238.6 254.734,246.22 C257.804,255.47 260.254,264.94 263.814,274.03 C267.194,282.88 269.414,292.11 272.524,301.05 C266.644,302.08 260.794,303.25 254.894,304.22 C254.454,291.47 245.384,280.72 245.984,267.85 C246.024,260.18 246.084,252.5 246.064,244.83 C246.134,237.76 244.604,230.63 246.214,223.64 z" fill-opacity="0" stroke="#FFB503" stroke-width="0.5"/>
      </g>
      <g>
        <path d="M210.174,225.83 C210.804,226.01 212.064,226.35 212.694,226.53 C213.114,231.7 212.984,236.89 212.694,242.08 C212.084,239.5 211.234,236.99 210.514,234.46 C210.334,231.58 210.234,228.7 210.174,225.83 z" fill="#DDBE41"/>
        <path d="M210.174,225.83 C210.804,226.01 212.064,226.35 212.694,226.53 C213.114,231.7 212.984,236.89 212.694,242.08 C212.084,239.5 211.234,236.99 210.514,234.46 C210.334,231.58 210.234,228.7 210.174,225.83 z" fill-opacity="0" stroke="#DDBE41" stroke-width="0.5"/>
      </g>
      <g>
        <path d="M210.514,234.46 C211.234,236.99 212.084,239.5 212.694,242.08 C212.514,250.67 213.424,259.23 213.334,267.82 C213.394,276.49 213.184,285.19 214.194,293.82 C214.724,298.72 214.814,303.67 214.334,308.59 C212.194,308.68 210.064,308.77 207.934,308.88 C208.304,298.01 208.134,287.12 208.744,276.26 C209.824,268.83 209.884,261.32 209.804,253.83 C209.684,247.35 210.534,240.92 210.514,234.46 z" fill="#9FA2A8"/>
        <path d="M210.514,234.46 C211.234,236.99 212.084,239.5 212.694,242.08 C212.514,250.67 213.424,259.23 213.334,267.82 C213.394,276.49 213.184,285.19 214.194,293.82 C214.724,298.72 214.814,303.67 214.334,308.59 C212.194,308.68 210.064,308.77 207.934,308.88 C208.304,298.01 208.134,287.12 208.744,276.26 C209.824,268.83 209.884,261.32 209.804,253.83 C209.684,247.35 210.534,240.92 210.514,234.46 z" fill-opacity="0" stroke="#9FA2A8" stroke-width="0.5"/>
      </g>
      <g>
        <path d="M129.644,253.67 C132.164,262.52 135.694,271.06 137.934,279.99 C132.064,273.49 127.724,265.79 122.094,259.1 C124.654,257.35 127.174,255.55 129.644,253.67 z" fill="#A0A2A7"/>
        <path d="M129.644,253.67 C132.164,262.52 135.694,271.06 137.934,279.99 C132.064,273.49 127.724,265.79 122.094,259.1 C124.654,257.35 127.174,255.55 129.644,253.67 z" fill-opacity="0" stroke="#A0A2A7" stroke-width="0.5"/>
      </g>
      <g>
        <path d="M327.294,274.04 C328.774,272.84 330.334,275.45 328.864,276.43 C327.374,277.6 325.804,275 327.294,274.04 z" fill="#D4BA4E"/>
        <path d="M327.294,274.04 C328.774,272.84 330.334,275.45 328.864,276.43 C327.374,277.6 325.804,275 327.294,274.04 z" fill-opacity="0" stroke="#D4BA4E" stroke-width="0.5"/>
      </g>
      <g>
        <path d="M328.814,285 C334.724,282.67 340.594,280.04 345.704,276.19 C346.894,284.69 346.364,293.29 346.494,301.84 C346.474,311.84 347.244,321.83 347.174,331.83 C347.364,349.16 347.004,366.52 348.594,383.8 C348.754,408.48 349.314,433.16 349.454,457.84 C349.344,466.37 350.784,474.83 350.674,483.37 C350.884,509.65 351.204,535.93 351.694,562.21 C352.024,568.24 351.354,574.44 353.184,580.3 L353.364,580.95 C330.764,580.7 308.134,581.07 285.574,579.48 C257.934,578.17 230.204,579.84 202.624,577.43 C180.594,576.44 158.504,577.53 136.484,576.43 C132.924,560.65 130.464,544.67 127.024,528.87 C126.244,523.84 125.594,518.76 123.954,513.92 C122.034,508.2 121.834,502.12 120.394,496.3 C119.084,491.09 118.534,485.74 117.264,480.53 C115.774,474.53 115.444,468.31 113.714,462.37 C112.074,456.61 110.784,450.76 110.004,444.83 C106.754,428.32 103.444,411.82 100.424,395.27 C96.314,379.74 94.084,363.8 90.734,348.1 C89.994,339.64 86.344,331.82 85.484,323.38 C83.254,313.58 81.964,303.62 79.714,293.83 C90.564,298.11 101.814,301.2 113.214,303.6 C117.384,304.7 121.604,305.54 125.894,306.01 C130.714,306.64 135.574,306.83 140.414,307.35 C143.984,307.92 147.574,308.45 151.214,308.48 C158.554,308.74 165.874,309.58 173.234,309.42 C175.514,309.42 177.804,309.42 180.104,309.44 C187.094,309.51 194.104,309.43 201.104,309.19 C203.374,309.09 205.654,308.98 207.934,308.88 C210.064,308.77 212.194,308.68 214.334,308.59 C215.594,308.51 216.854,308.43 218.134,308.34 C223.214,307.74 228.284,307.03 233.414,306.83 C237.954,306.52 242.514,306.23 247.034,305.62 C248.874,305.35 250.704,305.02 252.534,304.67 C253.124,304.56 254.304,304.33 254.894,304.22 C260.794,303.25 266.644,302.08 272.524,301.05 C277.074,300.24 281.544,299.09 286.074,298.21 C292.914,296.79 299.754,295.27 306.464,293.29 C314.234,291.43 321.374,287.81 328.814,285 M111.944,421.26 C112.694,425.6 113.304,430 114.534,434.26 C116.904,446.01 118.874,457.83 121.374,469.56 C122.984,479.99 126.594,490.02 127.444,500.58 C142.634,501.3 157.844,501.08 173.054,501.47 C201.964,502.04 230.894,502.33 259.804,502.31 C253.214,502.72 246.594,502.79 240.014,503.41 C268.044,503.06 296.064,504.19 324.104,504.31 C330.394,504.09 336.604,505.62 342.904,505.12 C343.664,494.37 343.054,483.58 343.214,472.82 C343.044,457.01 343.514,441.2 342.824,425.41 C332.094,425.39 321.324,425.72 310.664,424.42 C296.464,424.07 282.264,424.07 268.074,424 C228.404,423.27 188.744,422.58 149.064,422.34 C143.374,422.53 137.774,421.17 132.084,421.29 C125.364,421.3 118.654,421.02 111.944,421.26 z" fill="#ECDDC4"/>
        <path d="M328.814,285 C334.724,282.67 340.594,280.04 345.704,276.19 C346.894,284.69 346.364,293.29 346.494,301.84 C346.474,311.84 347.244,321.83 347.174,331.83 C347.364,349.16 347.004,366.52 348.594,383.8 C348.754,408.48 349.314,433.16 349.454,457.84 C349.344,466.37 350.784,474.83 350.674,483.37 C350.884,509.65 351.204,535.93 351.694,562.21 C352.024,568.24 351.354,574.44 353.184,580.3 L353.364,580.95 C330.764,580.7 308.134,581.07 285.574,579.48 C257.934,578.17 230.204,579.84 202.624,577.43 C180.594,576.44 158.504,577.53 136.484,576.43 C132.924,560.65 130.464,544.67 127.024,528.87 C126.244,523.84 125.594,518.76 123.954,513.92 C122.034,508.2 121.834,502.12 120.394,496.3 C119.084,491.09 118.534,485.74 117.264,480.53 C115.774,474.53 115.444,468.31 113.714,462.37 C112.074,456.61 110.784,450.76 110.004,444.83 C106.754,428.32 103.444,411.82 100.424,395.27 C96.314,379.74 94.084,363.8 90.734,348.1 C89.994,339.64 86.344,331.82 85.484,323.38 C83.254,313.58 81.964,303.62 79.714,293.83 C90.564,298.11 101.814,301.2 113.214,303.6 C117.384,304.7 121.604,305.54 125.894,306.01 C130.714,306.64 135.574,306.83 140.414,307.35 C143.984,307.92 147.574,308.45 151.214,308.48 C158.554,308.74 165.874,309.58 173.234,309.42 C175.514,309.42 177.804,309.42 180.104,309.44 C187.094,309.51 194.104,309.43 201.104,309.19 C203.374,309.09 205.654,308.98 207.934,308.88 C210.064,308.77 212.194,308.68 214.334,308.59 C215.594,308.51 216.854,308.43 218.134,308.34 C223.214,307.74 228.284,307.03 233.414,306.83 C237.954,306.52 242.514,306.23 247.034,305.62 C248.874,305.35 250.704,305.02 252.534,304.67 C253.124,304.56 254.304,304.33 254.894,304.22 C260.794,303.25 266.644,302.08 272.524,301.05 C277.074,300.24 281.544,299.09 286.074,298.21 C292.914,296.79 299.754,295.27 306.464,293.29 C314.234,291.43 321.374,287.81 328.814,285 M111.944,421.26 C112.694,425.6 113.304,430 114.534,434.26 C116.904,446.01 118.874,457.83 121.374,469.56 C122.984,479.99 126.594,490.02 127.444,500.58 C142.634,501.3 157.844,501.08 173.054,501.47 C201.964,502.04 230.894,502.33 259.804,502.31 C253.214,502.72 246.594,502.79 240.014,503.41 C268.044,503.06 296.064,504.19 324.104,504.31 C330.394,504.09 336.604,505.62 342.904,505.12 C343.664,494.37 343.054,483.58 343.214,472.82 C343.044,457.01 343.514,441.2 342.824,425.41 C332.094,425.39 321.324,425.72 310.664,424.42 C296.464,424.07 282.264,424.07 268.074,424 C228.404,423.27 188.744,422.58 149.064,422.34 C143.374,422.53 137.774,421.17 132.084,421.29 C125.364,421.3 118.654,421.02 111.944,421.26 z" fill-opacity="0" stroke="#ECDDC4" stroke-width="0.5"/>
      </g>
      <g>
        <path d="M94.894,279.74 C101.274,287.48 106.904,295.8 113.214,303.6 C101.814,301.2 90.564,298.11 79.714,293.83 C82.524,290.84 85.454,287.91 88.934,285.71 C91.374,284.21 93.414,282.18 94.894,279.74 z" fill="#A1A3A6"/>
        <path d="M94.894,279.74 C101.274,287.48 106.904,295.8 113.214,303.6 C101.814,301.2 90.564,298.11 79.714,293.83 C82.524,290.84 85.454,287.91 88.934,285.71 C91.374,284.21 93.414,282.18 94.894,279.74 z" fill-opacity="0" stroke="#A1A3A6" stroke-width="0.5"/>
      </g>
      <g>
        <path d="M247.034,305.62 C246.724,300.42 246.254,295.11 247.724,290.04 C250.264,294.56 251.744,299.56 252.534,304.67 C250.704,305.02 248.874,305.35 247.034,305.62 z" fill="#9BA0B1"/>
        <path d="M247.034,305.62 C246.724,300.42 246.254,295.11 247.724,290.04 C250.264,294.56 251.744,299.56 252.534,304.67 C250.704,305.02 248.874,305.35 247.034,305.62 z" fill-opacity="0" stroke="#9BA0B1" stroke-width="0.5"/>
      </g>
      <g>
        <path d="M111.944,421.26 C118.654,421.02 125.364,421.3 132.084,421.29 C137.774,421.17 143.374,422.53 149.064,422.34 C188.744,422.58 228.404,423.27 268.074,424 C282.264,424.07 296.464,424.07 310.664,424.42 C321.324,425.72 332.094,425.39 342.824,425.41 C343.514,441.2 343.044,457.01 343.214,472.82 C343.054,483.58 343.664,494.37 342.904,505.12 C336.604,505.62 330.394,504.09 324.104,504.31 C296.064,504.19 268.044,503.06 240.014,503.41 C246.594,502.79 253.214,502.72 259.804,502.31 C230.894,502.33 201.964,502.04 173.054,501.47 C157.844,501.08 142.634,501.3 127.444,500.58 C126.594,490.02 122.984,479.99 121.374,469.56 C118.874,457.83 116.904,446.01 114.534,434.26 C113.304,430 112.694,425.6 111.944,421.26 z" fill="#E24B26"/>
        <path d="M111.944,421.26 C118.654,421.02 125.364,421.3 132.084,421.29 C137.774,421.17 143.374,422.53 149.064,422.34 C188.744,422.58 228.404,423.27 268.074,424 C282.264,424.07 296.464,424.07 310.664,424.42 C321.324,425.72 332.094,425.39 342.824,425.41 C343.514,441.2 343.044,457.01 343.214,472.82 C343.054,483.58 343.664,494.37 342.904,505.12 C336.604,505.62 330.394,504.09 324.104,504.31 C296.064,504.19 268.044,503.06 240.014,503.41 C246.594,502.79 253.214,502.72 259.804,502.31 C230.894,502.33 201.964,502.04 173.054,501.47 C157.844,501.08 142.634,501.3 127.444,500.58 C126.594,490.02 122.984,479.99 121.374,469.56 C118.874,457.83 116.904,446.01 114.534,434.26 C113.304,430 112.694,425.6 111.944,421.26 z" fill-opacity="0" stroke="#E24B26" stroke-width="0.5"/>
      </g>
    </g>
  </g>
</svg>
