<?xml version="1.0"?>
<svg xmlns:rdf="http://www.w3.org/1999/02/22-rdf-syntax-ns#" xmlns="http://www.w3.org/2000/svg" xmlns:cc="http://web.resource.org/cc/" xmlns:xlink="http://www.w3.org/1999/xlink" xmlns:dc="http://purl.org/dc/elements/1.1/" id="svg2" viewBox="0 0 780.16 654.92" version="1.0">
 <defs id="defs3">
  <linearGradient id="linearGradient6349">
   <stop id="stop6351" stop-color="#ff0" offset="0"/>
   <stop id="stop6353" stop-color="#ff0" stop-opacity="0" offset="1"/>
  </linearGradient>
  <linearGradient id="linearGradient1893" x1="141.38" gradientUnits="userSpaceOnUse" y1="545.16" gradientTransform="translate(120.75 18.474)" x2="1194.1" y2="186.79">
   <stop id="stop4549" stop-color="#22630f" offset="0"/>
   <stop id="stop4551" stop-color="#22630f" stop-opacity="0" offset="1"/>
  </linearGradient>
  <linearGradient id="linearGradient1895" x1="354.29" xlink:href="#linearGradient6349" gradientUnits="userSpaceOnUse" y1="687.36" gradientTransform="matrix(1.0319 0 0 .87964 61.046 66.837)" x2="517.62" y2="687.36"/>
  <linearGradient id="linearGradient1897" x1="221.51" xlink:href="#linearGradient6349" gradientUnits="userSpaceOnUse" y1="687.36" gradientTransform="matrix(.27757 0 0 .87964 328.31 66.837)" x2="560.11" y2="687.36"/>
  <linearGradient id="linearGradient1899" x1="530" xlink:href="#linearGradient6349" gradientUnits="userSpaceOnUse" y1="687.36" gradientTransform="matrix(-1.0319 0 0 .87964 795.69 68.093)" x2="170.47" y2="687.36"/>
 </defs>
 <g id="layer1" transform="translate(-164.52 -36.06)">
  <g id="g1886" transform="matrix(1.9994 0 0 2.2178 -122.13 -1092.4)">
   <path id="path2769" d="m665.71 446.65a285.71 165.71 0 1 1 -571.42 0 285.71 165.71 0 1 1 571.42 0z" stroke-opacity=".99338" transform="matrix(.68142 0 0 .88014 79.529 263.98)" stroke="#080305" fill="url(#linearGradient1893)"/>
   <path id="path5462" opacity=".38028" fill-rule="evenodd" fill="url(#linearGradient1895)" d="m345.84 508.81c260.26 100.01 141.84 257.99-1.47 292.8 19.05-16.47 205.32-136.17 1.47-292.8z"/>
   <path id="path7242" opacity=".38028" fill-rule="evenodd" fill="url(#linearGradient1897)" d="m344.76 508.81c70.01 100.01 38.15 257.99-0.39 292.8 0.05-16.73-55.04-141.87 0.39-292.8z"/>
   <path id="path7246" opacity=".38028" fill-rule="evenodd" fill="url(#linearGradient1899)" d="m346.33 510.07c-260.26 100.01-141.84 257.98 1.48 292.79-19.06-16.46-205.32-136.16-1.48-292.79z"/>
   <path id="path7271" opacity=".41315" fill-rule="evenodd" fill="#ff0" d="m347.32 511.32c-279.12 3.36-258.98 289.45-1.48 292.8-236.86-3.35-259.95-289.44 1.48-292.8z"/>
  </g>
 </g>
 <metadata>
  <rdf:RDF>
   <cc:Work>
    <dc:format>image/svg+xml</dc:format>
    <dc:type rdf:resource="http://purl.org/dc/dcmitype/StillImage"/>
    <cc:license rdf:resource="http://creativecommons.org/licenses/publicdomain/"/>
    <dc:publisher>
     <cc:Agent rdf:about="http://openclipart.org/">
      <dc:title>Openclipart</dc:title>
     </cc:Agent>
    </dc:publisher>
   </cc:Work>
   <cc:License rdf:about="http://creativecommons.org/licenses/publicdomain/">
    <cc:permits rdf:resource="http://creativecommons.org/ns#Reproduction"/>
    <cc:permits rdf:resource="http://creativecommons.org/ns#Distribution"/>
    <cc:permits rdf:resource="http://creativecommons.org/ns#DerivativeWorks"/>
   </cc:License>
  </rdf:RDF>
 </metadata>
</svg>
